<svg width="37" height="37" viewBox="0 0 37 37" fill="none" xmlns="http://www.w3.org/2000/svg">
<g filter="url(#filter0_d_2516_3569)">
<path d="M14 29C15.1046 29 16 28.1046 16 27C16 25.8954 15.1046 25 14 25C12.8954 25 12 25.8954 12 27C12 28.1046 12.8954 29 14 29Z" fill="white"/>
<path d="M27 29C28.1046 29 29 28.1046 29 27C29 25.8954 28.1046 25 27 25C25.8954 25 25 25.8954 25 27C25 28.1046 25.8954 29 27 29Z" fill="white"/>
<path d="M9.2875 9H31.7125L28.4125 20.55C28.2948 20.9692 28.0426 21.3381 27.6948 21.6001C27.3471 21.862 26.9229 22.0025 26.4875 22H14.5125C14.0771 22.0025 13.6529 21.862 13.3052 21.6001C12.9574 21.3381 12.7052 20.9692 12.5875 20.55L8.0625 4.725C8.0027 4.51594 7.8764 4.33207 7.70271 4.20125C7.52903 4.07042 7.31744 3.99977 7.1 4H5" stroke="white" stroke-width="2" stroke-linecap="round" stroke-linejoin="round"/>
</g>
<defs>
<filter id="filter0_d_2516_3569" x="0" y="0" width="40" height="40" filterUnits="userSpaceOnUse" color-interpolation-filters="sRGB">
<feFlood flood-opacity="0" result="BackgroundImageFix"/>
<feColorMatrix in="SourceAlpha" type="matrix" values="0 0 0 0 0 0 0 0 0 0 0 0 0 0 0 0 0 0 127 0" result="hardAlpha"/>
<feOffset dy="4"/>
<feGaussianBlur stdDeviation="2"/>
<feComposite in2="hardAlpha" operator="out"/>
<feColorMatrix type="matrix" values="0 0 0 0 0 0 0 0 0 0 0 0 0 0 0 0 0 0 0.25 0"/>
<feBlend mode="normal" in2="BackgroundImageFix" result="effect1_dropShadow_2516_3569"/>
<feBlend mode="normal" in="SourceGraphic" in2="effect1_dropShadow_2516_3569" result="shape"/>
</filter>
</defs>
</svg>
